<svg width="224" height="82" viewBox="0 0 224 82" fill="none" xmlns="http://www.w3.org/2000/svg">
<g clip-path="url(#clip0_1_13)">
<path opacity="0.2" d="M37.4162 0H37.4161C16.7518 0 0 16.7518 0 37.4161V37.4162C0 58.0805 16.7518 74.8323 37.4161 74.8323H37.4162C58.0805 74.8323 74.8323 58.0805 74.8323 37.4162V37.4161C74.8323 16.7518 58.0805 0 37.4162 0Z" fill="#FA7275"/>
<path d="M82.6265 56.1238C82.6265 42.3475 71.4586 31.1797 57.6824 31.1797C43.9061 31.1797 32.7383 42.3475 32.7383 56.1238C32.7383 69.9 43.9061 81.0679 57.6824 81.0679C71.4586 81.0679 82.6265 69.9 82.6265 56.1238Z" fill="#FA7275"/>
<path d="M102.296 47.168C101.176 47.168 100.168 46.976 99.272 46.592C98.376 46.192 97.672 45.632 97.16 44.912C96.648 44.192 96.392 43.352 96.392 42.392H99.32C99.384 43.112 99.664 43.704 100.16 44.168C100.672 44.632 101.384 44.864 102.296 44.864C103.24 44.864 103.976 44.64 104.504 44.192C105.032 43.728 105.296 43.136 105.296 42.416C105.296 41.856 105.128 41.4 104.792 41.048C104.472 40.696 104.064 40.424 103.568 40.232C103.088 40.04 102.416 39.832 101.552 39.608C100.464 39.32 99.576 39.032 98.888 38.744C98.216 38.44 97.64 37.976 97.16 37.352C96.68 36.728 96.44 35.896 96.44 34.856C96.44 33.896 96.68 33.056 97.16 32.336C97.64 31.616 98.312 31.064 99.176 30.68C100.04 30.296 101.04 30.104 102.176 30.104C103.792 30.104 105.112 30.512 106.136 31.328C107.176 32.128 107.752 33.232 107.864 34.64H104.84C104.792 34.032 104.504 33.512 103.976 33.08C103.448 32.648 102.752 32.432 101.888 32.432C101.104 32.432 100.464 32.632 99.968 33.032C99.472 33.432 99.224 34.008 99.224 34.76C99.224 35.272 99.376 35.696 99.68 36.032C100 36.352 100.4 36.608 100.88 36.8C101.36 36.992 102.016 37.2 102.848 37.424C103.952 37.728 104.848 38.032 105.536 38.336C106.24 38.64 106.832 39.112 107.312 39.752C107.808 40.376 108.056 41.216 108.056 42.272C108.056 43.12 107.824 43.92 107.36 44.672C106.912 45.424 106.248 46.032 105.368 46.496C104.504 46.944 103.48 47.168 102.296 47.168ZM114.476 36.008V43.328C114.476 43.824 114.588 44.184 114.812 44.408C115.052 44.616 115.452 44.72 116.012 44.72H117.692V47H115.532C114.3 47 113.356 46.712 112.7 46.136C112.044 45.56 111.716 44.624 111.716 43.328V36.008H110.156V33.776H111.716V30.488H114.476V33.776H117.692V36.008H114.476ZM125.95 47.216C124.702 47.216 123.574 46.936 122.566 46.376C121.558 45.8 120.766 45 120.19 43.976C119.614 42.936 119.326 41.736 119.326 40.376C119.326 39.032 119.622 37.84 120.214 36.8C120.806 35.76 121.614 34.96 122.638 34.4C123.662 33.84 124.806 33.56 126.07 33.56C127.334 33.56 128.478 33.84 129.502 34.4C130.526 34.96 131.334 35.76 131.926 36.8C132.518 37.84 132.814 39.032 132.814 40.376C132.814 41.72 132.51 42.912 131.902 43.952C131.294 44.992 130.462 45.8 129.406 46.376C128.366 46.936 127.214 47.216 125.95 47.216ZM125.95 44.84C126.654 44.84 127.31 44.672 127.918 44.336C128.542 44 129.046 43.496 129.43 42.824C129.814 42.152 130.006 41.336 130.006 40.376C130.006 39.416 129.822 38.608 129.454 37.952C129.086 37.28 128.598 36.776 127.99 36.44C127.382 36.104 126.726 35.936 126.022 35.936C125.318 35.936 124.662 36.104 124.054 36.44C123.462 36.776 122.99 37.28 122.638 37.952C122.286 38.608 122.11 39.416 122.11 40.376C122.11 41.8 122.47 42.904 123.19 43.688C123.926 44.456 124.846 44.84 125.95 44.84ZM138.255 35.696C138.655 35.024 139.183 34.504 139.839 34.136C140.511 33.752 141.303 33.56 142.215 33.56V36.392H141.519C140.447 36.392 139.631 36.664 139.071 37.208C138.527 37.752 138.255 38.696 138.255 40.04V47H135.519V33.776H138.255V35.696ZM156.85 40.064C156.85 40.56 156.818 41.008 156.754 41.408H146.65C146.73 42.464 147.122 43.312 147.826 43.952C148.53 44.592 149.394 44.912 150.418 44.912C151.89 44.912 152.93 44.296 153.538 43.064H156.49C156.09 44.28 155.362 45.28 154.306 46.064C153.266 46.832 151.97 47.216 150.418 47.216C149.154 47.216 148.018 46.936 147.01 46.376C146.018 45.8 145.234 45 144.658 43.976C144.098 42.936 143.818 41.736 143.818 40.376C143.818 39.016 144.09 37.824 144.634 36.8C145.194 35.76 145.97 34.96 146.962 34.4C147.97 33.84 149.122 33.56 150.418 33.56C151.666 33.56 152.778 33.832 153.754 34.376C154.73 34.92 155.49 35.688 156.034 36.68C156.578 37.656 156.85 38.784 156.85 40.064ZM153.994 39.2C153.978 38.192 153.618 37.384 152.914 36.776C152.21 36.168 151.338 35.864 150.298 35.864C149.354 35.864 148.546 36.168 147.874 36.776C147.202 37.368 146.802 38.176 146.674 39.2H153.994ZM158.63 40.328C158.63 39 158.902 37.824 159.446 36.8C160.006 35.776 160.758 34.984 161.702 34.424C162.662 33.848 163.718 33.56 164.87 33.56C165.91 33.56 166.814 33.768 167.582 34.184C168.366 34.584 168.99 35.088 169.454 35.696V33.776H172.214V47H169.454V45.032C168.99 45.656 168.358 46.176 167.558 46.592C166.758 47.008 165.846 47.216 164.822 47.216C163.686 47.216 162.646 46.928 161.702 46.352C160.758 45.76 160.006 44.944 159.446 43.904C158.902 42.848 158.63 41.656 158.63 40.328ZM169.454 40.376C169.454 39.464 169.262 38.672 168.878 38C168.51 37.328 168.022 36.816 167.414 36.464C166.806 36.112 166.15 35.936 165.446 35.936C164.742 35.936 164.086 36.112 163.478 36.464C162.87 36.8 162.374 37.304 161.99 37.976C161.622 38.632 161.438 39.416 161.438 40.328C161.438 41.24 161.622 42.04 161.99 42.728C162.374 43.416 162.87 43.944 163.478 44.312C164.102 44.664 164.758 44.84 165.446 44.84C166.15 44.84 166.806 44.664 167.414 44.312C168.022 43.96 168.51 43.448 168.878 42.776C169.262 42.088 169.454 41.288 169.454 40.376ZM180.608 47.216C179.568 47.216 178.632 47.032 177.8 46.664C176.984 46.28 176.336 45.768 175.856 45.128C175.376 44.472 175.12 43.744 175.088 42.944H177.92C177.968 43.504 178.232 43.976 178.712 44.36C179.208 44.728 179.824 44.912 180.56 44.912C181.328 44.912 181.92 44.768 182.336 44.48C182.768 44.176 182.984 43.792 182.984 43.328C182.984 42.832 182.744 42.464 182.264 42.224C181.8 41.984 181.056 41.72 180.032 41.432C179.04 41.16 178.232 40.896 177.608 40.64C176.984 40.384 176.44 39.992 175.976 39.464C175.528 38.936 175.304 38.24 175.304 37.376C175.304 36.672 175.512 36.032 175.928 35.456C176.344 34.864 176.936 34.4 177.704 34.064C178.488 33.728 179.384 33.56 180.392 33.56C181.896 33.56 183.104 33.944 184.016 34.712C184.944 35.464 185.44 36.496 185.504 37.808H182.768C182.72 37.216 182.48 36.744 182.048 36.392C181.616 36.04 181.032 35.864 180.296 35.864C179.576 35.864 179.024 36 178.64 36.272C178.256 36.544 178.064 36.904 178.064 37.352C178.064 37.704 178.192 38 178.448 38.24C178.704 38.48 179.016 38.672 179.384 38.816C179.752 38.944 180.296 39.112 181.016 39.32C181.976 39.576 182.76 39.84 183.368 40.112C183.992 40.368 184.528 40.752 184.976 41.264C185.424 41.776 185.656 42.456 185.672 43.304C185.672 44.056 185.464 44.728 185.048 45.32C184.632 45.912 184.04 46.376 183.272 46.712C182.52 47.048 181.632 47.216 180.608 47.216ZM200.532 33.776L192.42 53.216H189.588L192.276 46.784L187.068 33.776H190.116L193.836 43.856L197.7 33.776H200.532Z" fill="#FA7275"/>
</g>
<defs>
<clipPath id="clip0_1_13">
<rect width="224" height="82" fill="white"/>
</clipPath>
</defs>
</svg>
