<svg width="224" height="82" viewBox="0 0 224 82" fill="none" xmlns="http://www.w3.org/2000/svg">
<path d="M99.79 46.0363C98.67 46.0363 97.662 45.8443 96.766 45.4603C95.87 45.0603 95.166 44.5003 94.654 43.7803C94.142 43.0603 93.886 42.2203 93.886 41.2603H96.814C96.878 41.9803 97.158 42.5723 97.654 43.0363C98.166 43.5003 98.878 43.7323 99.79 43.7323C100.734 43.7323 101.47 43.5083 101.998 43.0603C102.526 42.5963 102.79 42.0043 102.79 41.2843C102.79 40.7243 102.622 40.2683 102.286 39.9163C101.966 39.5643 101.558 39.2923 101.062 39.1003C100.582 38.9083 99.91 38.7003 99.046 38.4763C97.958 38.1883 97.07 37.9003 96.382 37.6123C95.71 37.3083 95.134 36.8443 94.654 36.2203C94.174 35.5963 93.934 34.7643 93.934 33.7243C93.934 32.7643 94.174 31.9243 94.654 31.2043C95.134 30.4843 95.806 29.9323 96.67 29.5483C97.534 29.1643 98.534 28.9723 99.67 28.9723C101.286 28.9723 102.606 29.3803 103.63 30.1963C104.67 30.9963 105.246 32.1003 105.358 33.5083H102.334C102.286 32.9003 101.998 32.3803 101.47 31.9483C100.942 31.5163 100.246 31.3003 99.382 31.3003C98.598 31.3003 97.958 31.5003 97.462 31.9003C96.966 32.3003 96.718 32.8763 96.718 33.6283C96.718 34.1403 96.87 34.5643 97.174 34.9003C97.494 35.2203 97.894 35.4763 98.374 35.6683C98.854 35.8603 99.51 36.0683 100.342 36.2923C101.446 36.5963 102.342 36.9003 103.03 37.2043C103.734 37.5083 104.326 37.9803 104.806 38.6203C105.302 39.2443 105.55 40.0843 105.55 41.1403C105.55 41.9883 105.318 42.7883 104.854 43.5403C104.406 44.2923 103.742 44.9003 102.862 45.3643C101.998 45.8123 100.974 46.0363 99.79 46.0363ZM111.97 34.8763V42.1963C111.97 42.6923 112.082 43.0523 112.306 43.2763C112.546 43.4843 112.946 43.5883 113.506 43.5883H115.186V45.8683H113.026C111.794 45.8683 110.85 45.5803 110.194 45.0043C109.538 44.4283 109.21 43.4923 109.21 42.1963V34.8763H107.65V32.6443H109.21V29.3563H111.97V32.6443H115.186V34.8763H111.97ZM123.444 46.0843C122.196 46.0843 121.068 45.8043 120.06 45.2443C119.052 44.6683 118.26 43.8683 117.684 42.8443C117.108 41.8043 116.82 40.6043 116.82 39.2443C116.82 37.9003 117.116 36.7083 117.708 35.6683C118.3 34.6283 119.108 33.8283 120.132 33.2683C121.156 32.7083 122.3 32.4283 123.564 32.4283C124.828 32.4283 125.972 32.7083 126.996 33.2683C128.02 33.8283 128.828 34.6283 129.42 35.6683C130.012 36.7083 130.308 37.9003 130.308 39.2443C130.308 40.5883 130.004 41.7803 129.396 42.8203C128.788 43.8603 127.956 44.6683 126.9 45.2443C125.86 45.8043 124.708 46.0843 123.444 46.0843ZM123.444 43.7083C124.148 43.7083 124.804 43.5403 125.412 43.2043C126.036 42.8683 126.54 42.3643 126.924 41.6923C127.308 41.0203 127.5 40.2043 127.5 39.2443C127.5 38.2843 127.316 37.4763 126.948 36.8203C126.58 36.1483 126.092 35.6443 125.484 35.3083C124.876 34.9723 124.22 34.8043 123.516 34.8043C122.812 34.8043 122.156 34.9723 121.548 35.3083C120.956 35.6443 120.484 36.1483 120.132 36.8203C119.78 37.4763 119.604 38.2843 119.604 39.2443C119.604 40.6683 119.964 41.7723 120.684 42.5563C121.42 43.3243 122.34 43.7083 123.444 43.7083ZM135.749 34.5643C136.149 33.8923 136.677 33.3723 137.333 33.0043C138.005 32.6203 138.797 32.4283 139.709 32.4283V35.2603H139.013C137.941 35.2603 137.125 35.5323 136.565 36.0763C136.021 36.6203 135.749 37.5643 135.749 38.9083V45.8683H133.013V32.6443H135.749V34.5643ZM154.344 38.9323C154.344 39.4283 154.312 39.8763 154.248 40.2763H144.144C144.224 41.3323 144.616 42.1803 145.32 42.8203C146.024 43.4603 146.888 43.7803 147.912 43.7803C149.384 43.7803 150.424 43.1643 151.032 41.9323H153.984C153.584 43.1483 152.856 44.1483 151.8 44.9323C150.76 45.7003 149.464 46.0843 147.912 46.0843C146.648 46.0843 145.512 45.8043 144.504 45.2443C143.512 44.6683 142.728 43.8683 142.152 42.8443C141.592 41.8043 141.312 40.6043 141.312 39.2443C141.312 37.8843 141.584 36.6923 142.128 35.6683C142.688 34.6283 143.464 33.8283 144.456 33.2683C145.464 32.7083 146.616 32.4283 147.912 32.4283C149.16 32.4283 150.272 32.7003 151.248 33.2443C152.224 33.7883 152.984 34.5563 153.528 35.5483C154.072 36.5243 154.344 37.6523 154.344 38.9323ZM151.488 38.0683C151.472 37.0603 151.112 36.2523 150.408 35.6443C149.704 35.0363 148.832 34.7323 147.792 34.7323C146.848 34.7323 146.04 35.0363 145.368 35.6443C144.696 36.2363 144.296 37.0443 144.168 38.0683H151.488ZM156.124 39.1963C156.124 37.8683 156.396 36.6923 156.94 35.6683C157.5 34.6443 158.252 33.8523 159.196 33.2923C160.156 32.7163 161.212 32.4283 162.364 32.4283C163.404 32.4283 164.308 32.6363 165.076 33.0523C165.86 33.4523 166.484 33.9563 166.948 34.5643V32.6443H169.708V45.8683H166.948V43.9003C166.484 44.5243 165.852 45.0443 165.052 45.4603C164.252 45.8763 163.34 46.0843 162.316 46.0843C161.18 46.0843 160.14 45.7963 159.196 45.2203C158.252 44.6283 157.5 43.8123 156.94 42.7723C156.396 41.7163 156.124 40.5243 156.124 39.1963ZM166.948 39.2443C166.948 38.3323 166.756 37.5403 166.372 36.8683C166.004 36.1963 165.516 35.6843 164.908 35.3323C164.3 34.9803 163.644 34.8043 162.94 34.8043C162.236 34.8043 161.58 34.9803 160.972 35.3323C160.364 35.6683 159.868 36.1723 159.484 36.8443C159.116 37.5003 158.932 38.2843 158.932 39.1963C158.932 40.1083 159.116 40.9083 159.484 41.5963C159.868 42.2843 160.364 42.8123 160.972 43.1803C161.596 43.5323 162.252 43.7083 162.94 43.7083C163.644 43.7083 164.3 43.5323 164.908 43.1803C165.516 42.8283 166.004 42.3163 166.372 41.6443C166.756 40.9563 166.948 40.1563 166.948 39.2443ZM178.102 46.0843C177.062 46.0843 176.126 45.9003 175.294 45.5323C174.478 45.1483 173.83 44.6363 173.35 43.9963C172.87 43.3403 172.614 42.6123 172.582 41.8123H175.414C175.462 42.3723 175.726 42.8443 176.206 43.2283C176.702 43.5963 177.318 43.7803 178.054 43.7803C178.822 43.7803 179.414 43.6363 179.83 43.3483C180.262 43.0443 180.478 42.6603 180.478 42.1963C180.478 41.7003 180.238 41.3323 179.758 41.0923C179.294 40.8523 178.55 40.5883 177.526 40.3003C176.534 40.0283 175.726 39.7643 175.102 39.5083C174.478 39.2523 173.934 38.8603 173.47 38.3323C173.022 37.8043 172.798 37.1083 172.798 36.2443C172.798 35.5403 173.006 34.9003 173.422 34.3243C173.838 33.7323 174.43 33.2683 175.198 32.9323C175.982 32.5963 176.878 32.4283 177.886 32.4283C179.39 32.4283 180.598 32.8123 181.51 33.5803C182.438 34.3323 182.934 35.3643 182.998 36.6763H180.262C180.214 36.0843 179.974 35.6123 179.542 35.2603C179.11 34.9083 178.526 34.7323 177.79 34.7323C177.07 34.7323 176.518 34.8683 176.134 35.1403C175.75 35.4123 175.558 35.7723 175.558 36.2203C175.558 36.5723 175.686 36.8683 175.942 37.1083C176.198 37.3483 176.51 37.5403 176.878 37.6843C177.246 37.8123 177.79 37.9803 178.51 38.1883C179.47 38.4443 180.254 38.7083 180.862 38.9803C181.486 39.2363 182.022 39.6203 182.47 40.1323C182.918 40.6443 183.15 41.3243 183.166 42.1723C183.166 42.9243 182.958 43.5963 182.542 44.1883C182.126 44.7803 181.534 45.2443 180.766 45.5803C180.014 45.9163 179.126 46.0843 178.102 46.0843ZM198.026 32.6443L189.914 52.0843H187.082L189.77 45.6523L184.562 32.6443H187.61L191.33 42.7243L195.194 32.6443H198.026Z" fill="white"/>
<path opacity="0.2" d="M37.4162 0H37.4161C16.7518 0 0 16.7518 0 37.4161V37.4162C0 58.0805 16.7518 74.8323 37.4161 74.8323H37.4162C58.0805 74.8323 74.8323 58.0805 74.8323 37.4162V37.4161C74.8323 16.7518 58.0805 0 37.4162 0Z" fill="white"/>
<path d="M82.6265 56.1238C82.6265 42.3475 71.4586 31.1797 57.6824 31.1797C43.9061 31.1797 32.7383 42.3475 32.7383 56.1238C32.7383 69.9 43.9061 81.0679 57.6824 81.0679C71.4586 81.0679 82.6265 69.9 82.6265 56.1238Z" fill="white"/>
</svg>
